<svg width="20" height="20" viewBox="0 0 20 20" fill="none" xmlns="http://www.w3.org/2000/svg">
<path d="M1.66667 10.833V12.4997C1.66667 16.6663 3.33333 18.333 7.5 18.333" stroke="#666D80" stroke-width="1.25" stroke-linecap="round" stroke-linejoin="round"/>
<path d="M11.6667 1.6665H7.5C3.33333 1.6665 1.66667 3.33317 1.66667 7.49984" stroke="#666D80" stroke-width="1.25" stroke-linecap="round" stroke-linejoin="round"/>
<path d="M18.3334 8.33301V10.833" stroke="#666D80" stroke-width="1.25" stroke-linecap="round" stroke-linejoin="round"/>
<path d="M18.3333 8.33317H15C12.5 8.33317 11.6667 7.49984 11.6667 4.99984V1.6665L18.3333 8.33317Z" stroke="#666D80" stroke-width="1.25" stroke-linecap="round" stroke-linejoin="round"/>
<path d="M11.4667 15.2162C9.50834 15.3579 9.50834 18.1912 11.4667 18.3329H16.1C16.6583 18.3329 17.2083 18.1245 17.6167 17.7495C18.9917 16.5495 18.2583 14.1495 16.45 13.9245C15.8 10.0162 10.15 11.4995 11.4833 15.2245" stroke="#666D80" stroke-width="1.25" stroke-miterlimit="10" stroke-linecap="round" stroke-linejoin="round"/>
</svg>
