<svg width="20" height="20" viewBox="0 0 20 20" fill="none" xmlns="http://www.w3.org/2000/svg">
<path d="M10.975 1.6665C6.90831 1.6665 3.61664 4.7415 3.61664 8.53316C3.61664 8.74983 3.62498 8.95817 3.64998 9.1665C4.39165 8.68317 5.28331 8.40819 6.24997 8.40819C8.78331 8.40819 10.8333 10.3248 10.8333 12.6915C10.8333 13.6832 10.4666 14.5998 9.84998 15.3248C10.2166 15.3748 10.5916 15.3998 10.975 15.3998L14.4666 17.4748C15.0583 17.8331 15.8 17.3498 15.7166 16.6582L15.3916 14.0249C17.175 12.7749 18.3333 10.7832 18.3333 8.53316C18.3333 5.97483 16.8333 3.74151 14.6 2.55818" stroke="#666D80" stroke-width="1.25" stroke-linecap="round" stroke-linejoin="round"/>
<path d="M3.65 9.16651C4.39167 8.68318 5.28333 8.4082 6.25 8.4082C8.78333 8.4082 10.8333 10.3248 10.8333 12.6915C10.8333 13.6832 10.4667 14.5999 9.85001 15.3249C9.02501 16.3249 7.71667 16.9665 6.25 16.9665L4.075 18.2582C3.70833 18.4832 3.24166 18.1748 3.29166 17.7498L3.5 16.1082C2.38333 15.3332 1.66667 14.0915 1.66667 12.6915C1.66667 12.4415 1.69167 12.1998 1.73333 11.9665" stroke="#666D80" stroke-width="1.25" stroke-linecap="round" stroke-linejoin="round"/>
</svg>
