<svg width="20" height="20" viewBox="0 0 20 20" fill="none" xmlns="http://www.w3.org/2000/svg">
<path d="M1.66667 5.3665C1.66667 2.40817 2.40833 1.6665 5.36667 1.6665H6.66667" stroke="#666D80" stroke-width="1.25" stroke-linecap="round" stroke-linejoin="round"/>
<path d="M18.3333 9.90837V10.65C18.3333 13.6167 17.5917 14.35 14.6333 14.35H5.36667C2.40833 14.35 1.66667 13.6084 1.66667 10.65V8.9917" stroke="#666D80" stroke-width="1.25" stroke-linecap="round" stroke-linejoin="round"/>
<path d="M10 14.3501V18.3334" stroke="#666D80" stroke-width="1.25" stroke-linecap="round" stroke-linejoin="round"/>
<path d="M1.66669 10.833H18.3334" stroke="#666D80" stroke-width="1.25" stroke-linecap="round" stroke-linejoin="round"/>
<path d="M6.25 18.333H13.75" stroke="#666D80" stroke-width="1.25" stroke-linecap="round" stroke-linejoin="round"/>
<path d="M14.8833 7.80814H10.9167C9.76668 7.80814 9.38334 7.04147 9.38334 6.27481V3.34147C9.38334 2.4248 10.1333 1.6748 11.05 1.6748H14.8833C15.7333 1.6748 16.4167 2.35814 16.4167 3.20814V6.27481C16.4167 7.12481 15.7333 7.80814 14.8833 7.80814Z" stroke="#666D80" stroke-width="1.25" stroke-linecap="round" stroke-linejoin="round"/>
<path d="M17.425 6.5999L16.4167 5.89156V3.59156L17.425 2.88323C17.925 2.54156 18.3333 2.7499 18.3333 3.35823V6.13323C18.3333 6.74156 17.925 6.9499 17.425 6.5999Z" stroke="#666D80" stroke-width="1.25" stroke-linecap="round" stroke-linejoin="round"/>
</svg>
