<svg width="20" height="20" viewBox="0 0 20 20" fill="none" xmlns="http://www.w3.org/2000/svg">
<g clip-path="url(#clip0_2518_1845)">
<path d="M1.66667 3.8834C1.66667 2.89173 2.47498 2.14174 3.46664 2.22508C5.21664 2.36674 7.86664 3.2501 9.34997 4.1751L9.55831 4.30007C9.79997 4.45007 10.2 4.45007 10.4417 4.30007L10.5833 4.20841C11.1083 3.88341 11.775 3.55841 12.5 3.26674V6.66676L14.1667 5.55841L15.8333 6.66676V2.31678C16.0583 2.27511 16.275 2.25008 16.475 2.23342H16.525C17.5167 2.15008 18.3333 2.89174 18.3333 3.89174V13.9501C18.3333 14.7501 17.6833 15.5001 16.8833 15.6001L16.6083 15.6334C14.7917 15.8751 11.9916 16.8001 10.3916 17.6834C10.175 17.8084 9.81667 17.8084 9.59167 17.6834L9.55831 17.6668C7.95831 16.7918 5.16669 15.8751 3.35836 15.6334L3.11666 15.6001C2.31666 15.5001 1.66667 14.7501 1.66667 13.9501V7.37507" stroke="#666D80" stroke-width="1.25" stroke-linecap="round" stroke-linejoin="round"/>
<path d="M10 4.5752V17.0752" stroke="#666D80" stroke-width="1.25" stroke-linecap="round" stroke-linejoin="round"/>
<path d="M15.8333 2.31689V6.66687L14.1667 5.55852L12.5 6.66687V3.26686C13.5917 2.83352 14.8083 2.48356 15.8333 2.31689Z" stroke="#666D80" stroke-width="1.25" stroke-linecap="round" stroke-linejoin="round"/>
</g>
<defs>
<clipPath id="clip0_2518_1845">
<rect width="20" height="20" fill="white"/>
</clipPath>
</defs>
</svg>
