<svg width="20" height="20" viewBox="0 0 20 20" fill="none" xmlns="http://www.w3.org/2000/svg">
<g clip-path="url(#clip0_2518_1589)">
<path d="M13.1083 1.6665C11.7833 1.6665 11.25 2.1415 11.25 3.3165V7.0915C11.25 8.27484 11.7833 8.7415 13.1083 8.7415H16.475C17.8 8.7415 18.3333 8.2665 18.3333 7.0915V3.3165C18.3333 2.1415 17.8 1.6665 16.475 1.6665" stroke="#666D80" stroke-width="1.25" stroke-linecap="round" stroke-linejoin="round"/>
<path d="M18.3333 16.475V13.1083C18.3333 11.7833 17.8 11.25 16.475 11.25H13.1083C11.7833 11.25 11.25 11.7833 11.25 13.1083V16.475C11.25 17.8 11.7833 18.3333 13.1083 18.3333H16.475C17.8 18.3333 18.3333 17.8 18.3333 16.475Z" stroke="#666D80" stroke-width="1.25" stroke-linecap="round" stroke-linejoin="round"/>
<path d="M8.75 7.09984V3.3165C8.75 2.1415 8.21667 1.6665 6.89167 1.6665H3.525C2.2 1.6665 1.66667 2.1415 1.66667 3.3165V7.0915C1.66667 8.27484 2.2 8.7415 3.525 8.7415H6.89167C8.21667 8.74984 8.75 8.27484 8.75 7.09984Z" stroke="#666D80" stroke-width="1.25" stroke-linecap="round" stroke-linejoin="round"/>
<path d="M6.89167 18.3333C8.21667 18.3333 8.75 17.8 8.75 16.475V13.1083C8.75 11.7833 8.21667 11.25 6.89167 11.25H3.525C2.2 11.25 1.66667 11.7833 1.66667 13.1083V16.475C1.66667 17.8 2.2 18.3333 3.525 18.3333" stroke="#666D80" stroke-width="1.25" stroke-linecap="round" stroke-linejoin="round"/>
</g>
<defs>
<clipPath id="clip0_2518_1589">
<rect width="20" height="20" fill="white"/>
</clipPath>
</defs>
</svg>
