<svg width="16" height="16" viewBox="0 0 16 16" fill="none" xmlns="http://www.w3.org/2000/svg">
<path d="M8.00002 1.47538C7.81624 1.38301 7.61152 1.33337 7.40127 1.33337H4.66669C3.56212 1.33337 2.66669 2.2288 2.66669 3.33337V12.6667C2.66669 13.7713 3.56212 14.6667 4.66669 14.6667H11.3334C12.4379 14.6667 13.3334 13.7713 13.3334 12.6667V7.84031C13.3334 7.66497 13.2988 7.49291 13.2332 7.33337M8.00002 1.47538C8.14914 1.55032 8.28447 1.65338 8.39781 1.78089L12.9966 6.95449C13.097 7.06751 13.1767 7.19578 13.2332 7.33337M8.00002 1.47538V5.33337C8.00002 6.43794 8.89545 7.33337 10 7.33337H13.2332" stroke="#808897" stroke-width="1.5"/>
</svg>
