<svg width="16" height="16" viewBox="0 0 16 16" fill="none" xmlns="http://www.w3.org/2000/svg">
<mask id="path-1-inside-1_2009_21726" fill="white">
<path fill-rule="evenodd" clip-rule="evenodd" d="M6.08334 5.33329C6.08334 4.27475 6.94146 3.41663 8.00001 3.41663C9.05856 3.41663 9.91668 4.27475 9.91668 5.33329V7.24996H6.08334V5.33329ZM11.4167 5.33329V7.25159C12.5286 7.29534 13.4167 8.21061 13.4167 9.33329V12C13.4167 13.1506 12.4839 14.0833 11.3333 14.0833H4.66668C3.51608 14.0833 2.58334 13.1506 2.58334 12V9.33329C2.58334 8.21061 3.47138 7.29534 4.58334 7.25159V5.33329C4.58334 3.44632 6.11304 1.91663 8.00001 1.91663C9.88698 1.91663 11.4167 3.44632 11.4167 5.33329ZM4.08334 9.33329C4.08334 9.01113 4.34451 8.74996 4.66668 8.74996H5.33334H10.6667H11.3333C11.6555 8.74996 11.9167 9.01113 11.9167 9.33329V12C11.9167 12.3221 11.6555 12.5833 11.3333 12.5833H4.66668C4.34451 12.5833 4.08334 12.3221 4.08334 12V9.33329ZM8.00001 11.5C8.46025 11.5 8.83334 11.1269 8.83334 10.6666C8.83334 10.2064 8.46025 9.83329 8.00001 9.83329C7.53977 9.83329 7.16668 10.2064 7.16668 10.6666C7.16668 11.1269 7.53977 11.5 8.00001 11.5Z"/>
</mask>
<path fill-rule="evenodd" clip-rule="evenodd" d="M6.08334 5.33329C6.08334 4.27475 6.94146 3.41663 8.00001 3.41663C9.05856 3.41663 9.91668 4.27475 9.91668 5.33329V7.24996H6.08334V5.33329ZM11.4167 5.33329V7.25159C12.5286 7.29534 13.4167 8.21061 13.4167 9.33329V12C13.4167 13.1506 12.4839 14.0833 11.3333 14.0833H4.66668C3.51608 14.0833 2.58334 13.1506 2.58334 12V9.33329C2.58334 8.21061 3.47138 7.29534 4.58334 7.25159V5.33329C4.58334 3.44632 6.11304 1.91663 8.00001 1.91663C9.88698 1.91663 11.4167 3.44632 11.4167 5.33329ZM4.08334 9.33329C4.08334 9.01113 4.34451 8.74996 4.66668 8.74996H5.33334H10.6667H11.3333C11.6555 8.74996 11.9167 9.01113 11.9167 9.33329V12C11.9167 12.3221 11.6555 12.5833 11.3333 12.5833H4.66668C4.34451 12.5833 4.08334 12.3221 4.08334 12V9.33329ZM8.00001 11.5C8.46025 11.5 8.83334 11.1269 8.83334 10.6666C8.83334 10.2064 8.46025 9.83329 8.00001 9.83329C7.53977 9.83329 7.16668 10.2064 7.16668 10.6666C7.16668 11.1269 7.53977 11.5 8.00001 11.5Z" fill="#808897"/>
<path d="M9.91668 7.24996V8.44996H11.1167V7.24996H9.91668ZM6.08334 7.24996H4.88334V8.44996H6.08334V7.24996ZM11.4167 7.25159H10.2167V8.40532L11.3695 8.45067L11.4167 7.25159ZM4.58334 7.25159L4.63051 8.45067L5.78334 8.40532V7.25159H4.58334ZM8.00001 2.21663C6.27872 2.21663 4.88334 3.61201 4.88334 5.33329H7.28334C7.28334 4.93749 7.60421 4.61663 8.00001 4.61663V2.21663ZM11.1167 5.33329C11.1167 3.612 9.7213 2.21663 8.00001 2.21663V4.61663C8.39581 4.61663 8.71668 4.93749 8.71668 5.33329H11.1167ZM11.1167 7.24996V5.33329H8.71668V7.24996H11.1167ZM6.08334 8.44996H9.91668V6.04996H6.08334V8.44996ZM4.88334 5.33329V7.24996H7.28334V5.33329H4.88334ZM12.6167 7.25159V5.33329H10.2167V7.25159H12.6167ZM14.6167 9.33329C14.6167 7.56366 13.2171 6.12149 11.4638 6.05252L11.3695 8.45067C11.8401 8.46918 12.2167 8.85755 12.2167 9.33329H14.6167ZM14.6167 12V9.33329H12.2167V12H14.6167ZM11.3333 15.2833C13.1467 15.2833 14.6167 13.8133 14.6167 12H12.2167C12.2167 12.4878 11.8212 12.8833 11.3333 12.8833V15.2833ZM4.66668 15.2833H11.3333V12.8833H4.66668V15.2833ZM1.38334 12C1.38334 13.8133 2.85334 15.2833 4.66668 15.2833V12.8833C4.17883 12.8833 3.78334 12.4878 3.78334 12H1.38334ZM1.38334 9.33329V12H3.78334V9.33329H1.38334ZM4.53617 6.05252C2.78288 6.12149 1.38334 7.56366 1.38334 9.33329H3.78334C3.78334 8.85755 4.15989 8.46918 4.63051 8.45067L4.53617 6.05252ZM3.38334 5.33329V7.25159H5.78334V5.33329H3.38334ZM8.00001 0.716626C5.4503 0.716626 3.38334 2.78358 3.38334 5.33329H5.78334C5.78334 4.10906 6.77578 3.11663 8.00001 3.11663V0.716626ZM12.6167 5.33329C12.6167 2.78358 10.5497 0.716626 8.00001 0.716626V3.11663C9.22424 3.11663 10.2167 4.10906 10.2167 5.33329H12.6167ZM4.66668 7.54996C3.68177 7.54996 2.88334 8.34838 2.88334 9.33329H5.28334C5.28334 9.67387 5.00725 9.94996 4.66668 9.94996V7.54996ZM5.33334 7.54996H4.66668V9.94996H5.33334V7.54996ZM10.6667 7.54996H5.33334V9.94996H10.6667V7.54996ZM11.3333 7.54996H10.6667V9.94996H11.3333V7.54996ZM13.1167 9.33329C13.1167 8.34838 12.3182 7.54996 11.3333 7.54996V9.94996C10.9928 9.94996 10.7167 9.67387 10.7167 9.33329H13.1167ZM13.1167 12V9.33329H10.7167V12H13.1167ZM11.3333 13.7833C12.3182 13.7833 13.1167 12.9849 13.1167 12H10.7167C10.7167 11.6594 10.9928 11.3833 11.3333 11.3833V13.7833ZM4.66668 13.7833H11.3333V11.3833H4.66668V13.7833ZM2.88334 12C2.88334 12.9849 3.68177 13.7833 4.66668 13.7833V11.3833C5.00725 11.3833 5.28334 11.6594 5.28334 12H2.88334ZM2.88334 9.33329V12H5.28334V9.33329H2.88334ZM7.63334 10.6666C7.63334 10.4641 7.7975 10.3 8.00001 10.3V12.7C9.12299 12.7 10.0333 11.7896 10.0333 10.6666H7.63334ZM8.00001 11.0333C7.79751 11.0333 7.63334 10.8691 7.63334 10.6666H10.0333C10.0333 9.54365 9.12299 8.63329 8.00001 8.63329V11.0333ZM8.36668 10.6666C8.36668 10.8691 8.20251 11.0333 8.00001 11.0333V8.63329C6.87703 8.63329 5.96668 9.54365 5.96668 10.6666H8.36668ZM8.00001 10.3C8.20252 10.3 8.36668 10.4641 8.36668 10.6666H5.96668C5.96668 11.7896 6.87703 12.7 8.00001 12.7V10.3Z" fill="#808897" mask="url(#path-1-inside-1_2009_21726)"/>
</svg>
