<svg width="220" height="32" viewBox="0 0 220 32" fill="none" xmlns="http://www.w3.org/2000/svg">
<g filter="url(#filter0_i_2074_8612)">
<rect width="32" height="32" rx="16" fill="#4E57EF"/>
<path d="M4.70795 18.7998V10.6544H6.43011V14.0151H9.92614V10.6544H11.6443V18.7998H9.92614V15.435H6.43011V18.7998H4.70795ZM12.6162 10.6544H14.7401L16.9832 16.1271H17.0787L19.3219 10.6544H21.4457V18.7998H19.7753V13.4981H19.7077L17.5997 18.76H16.4622L14.3543 13.4782H14.2867V18.7998H12.6162V10.6544ZM22.4166 18.7998V10.6544H27.8098V12.0742H24.1388V14.0151H27.4519V15.435H24.1388V18.7998H22.4166Z" fill="#E7E7E7"/>
</g>
<path d="M42.708 20V11.8545H44.4301V15.2153H47.9261V11.8545H49.6443V20H47.9261V16.6352H44.4301V20H42.708ZM53.3685 20.1193C52.7401 20.1193 52.1992 19.992 51.7457 19.7375C51.295 19.4803 50.9476 19.117 50.7037 18.6477C50.4598 18.1758 50.3378 17.6176 50.3378 16.9733C50.3378 16.3449 50.4598 15.7934 50.7037 15.3188C50.9476 14.8441 51.291 14.4742 51.7338 14.2091C52.1793 13.9439 52.7016 13.8114 53.3009 13.8114C53.7039 13.8114 54.0791 13.8763 54.4264 14.0063C54.7764 14.1335 55.0814 14.3258 55.3412 14.583C55.6037 14.8402 55.8079 15.1636 55.9537 15.5534C56.0995 15.9405 56.1725 16.3939 56.1725 16.9136V17.379H51.0139V16.329H54.5776C54.5776 16.085 54.5245 15.8689 54.4185 15.6807C54.3124 15.4924 54.1653 15.3453 53.977 15.2392C53.7914 15.1305 53.5753 15.0761 53.3287 15.0761C53.0715 15.0761 52.8435 15.1358 52.6446 15.2551C52.4484 15.3718 52.2946 15.5295 52.1832 15.7284C52.0719 15.9246 52.0149 16.1434 52.0122 16.3847V17.383C52.0122 17.6852 52.0679 17.9464 52.1793 18.1665C52.2933 18.3866 52.4537 18.5563 52.6605 18.6756C52.8673 18.7949 53.1126 18.8545 53.3963 18.8545C53.5846 18.8545 53.7569 18.828 53.9134 18.775C54.0698 18.722 54.2037 18.6424 54.3151 18.5364C54.4264 18.4303 54.5113 18.3004 54.5696 18.1466L56.1367 18.25C56.0571 18.6265 55.894 18.9553 55.6475 19.2364C55.4035 19.5148 55.088 19.7322 54.7009 19.8886C54.3164 20.0424 53.8723 20.1193 53.3685 20.1193ZM58.5722 20.1153C58.1824 20.1153 57.8351 20.0477 57.5301 19.9125C57.2252 19.7746 56.9839 19.5718 56.8063 19.304C56.6313 19.0335 56.5438 18.6968 56.5438 18.2938C56.5438 17.9544 56.6061 17.6693 56.7307 17.4386C56.8553 17.208 57.025 17.0223 57.2398 16.8818C57.4546 16.7413 57.6985 16.6352 57.9716 16.5636C58.2474 16.492 58.5364 16.4417 58.8387 16.4125C59.194 16.3754 59.4803 16.3409 59.6977 16.3091C59.9152 16.2746 60.0729 16.2242 60.171 16.158C60.2692 16.0917 60.3182 15.9936 60.3182 15.8636V15.8398C60.3182 15.5879 60.2387 15.393 60.0796 15.2551C59.9231 15.1172 59.7004 15.0483 59.4114 15.0483C59.1065 15.0483 58.8638 15.1159 58.6835 15.2511C58.5032 15.3837 58.3839 15.5508 58.3256 15.7523L56.7585 15.625C56.8381 15.2538 56.9945 14.933 57.2279 14.6625C57.4612 14.3894 57.7621 14.1799 58.1307 14.0341C58.5019 13.8856 58.9315 13.8114 59.4193 13.8114C59.7587 13.8114 60.0835 13.8511 60.3938 13.9307C60.7067 14.0102 60.9837 14.1335 61.225 14.3006C61.469 14.4676 61.6612 14.6824 61.8017 14.9449C61.9423 15.2047 62.0125 15.5163 62.0125 15.8795V20H60.4057V19.1528H60.358C60.2599 19.3438 60.1286 19.5121 59.9642 19.658C59.7998 19.8011 59.6023 19.9138 59.3716 19.996C59.1409 20.0756 58.8745 20.1153 58.5722 20.1153ZM59.0574 18.946C59.3067 18.946 59.5267 18.897 59.7176 18.7989C59.9085 18.6981 60.0584 18.5629 60.1671 18.3932C60.2758 18.2235 60.3301 18.0312 60.3301 17.8165V17.1682C60.2771 17.2027 60.2042 17.2345 60.1114 17.2636C60.0212 17.2902 59.9192 17.3153 59.8051 17.3392C59.6911 17.3604 59.5771 17.3803 59.4631 17.3989C59.3491 17.4148 59.2457 17.4294 59.1529 17.4426C58.954 17.4718 58.7803 17.5182 58.6318 17.5818C58.4834 17.6455 58.368 17.7316 58.2858 17.8403C58.2036 17.9464 58.1625 18.079 58.1625 18.2381C58.1625 18.4688 58.246 18.6451 58.4131 18.767C58.5828 18.8864 58.7976 18.946 59.0574 18.946ZM64.5733 11.8545V20H62.879V11.8545H64.5733ZM68.732 13.8909V15.1636H65.053V13.8909H68.732ZM65.8883 12.4273H67.5826V18.1227C67.5826 18.2792 67.6064 18.4011 67.6542 18.4886C67.7019 18.5735 67.7682 18.6331 67.853 18.6676C67.9405 18.7021 68.0413 18.7193 68.1553 18.7193C68.2348 18.7193 68.3144 18.7127 68.3939 18.6994C68.4735 18.6835 68.5345 18.6716 68.5769 18.6636L68.8434 19.9244C68.7585 19.9509 68.6392 19.9814 68.4854 20.0159C68.3316 20.053 68.1447 20.0756 67.9246 20.0835C67.5163 20.0994 67.1583 20.0451 66.8508 19.9205C66.5458 19.7958 66.3085 19.6023 66.1388 19.3398C65.9691 19.0773 65.8856 18.7458 65.8883 18.3455V12.4273ZM71.2133 16.4682V20H69.5189V11.8545H71.1655V14.9688H71.2371C71.375 14.6081 71.5977 14.3258 71.9053 14.1216C72.2129 13.9148 72.5987 13.8114 73.0627 13.8114C73.4869 13.8114 73.8568 13.9042 74.1724 14.0898C74.4905 14.2727 74.7371 14.5366 74.9121 14.8813C75.0898 15.2233 75.1773 15.633 75.1746 16.1102V20H73.4803V16.4125C73.483 16.036 73.3875 15.743 73.1939 15.5335C73.003 15.3241 72.7352 15.2193 72.3905 15.2193C72.1599 15.2193 71.9557 15.2684 71.778 15.3665C71.603 15.4646 71.4652 15.6078 71.3644 15.796C71.2663 15.9816 71.2159 16.2057 71.2133 16.4682ZM76.8873 22.2909C76.6725 22.2909 76.471 22.2737 76.2827 22.2392C76.0971 22.2074 75.9433 22.1663 75.8214 22.1159L76.2032 20.8511C76.4021 20.9121 76.581 20.9453 76.7401 20.9506C76.9019 20.9559 77.0411 20.9188 77.1577 20.8392C77.2771 20.7597 77.3738 20.6244 77.4481 20.4335L77.5475 20.175L75.356 13.8909H77.1379L78.4026 18.3773H78.4663L79.743 13.8909H81.5367L79.1623 20.6602C79.0483 20.989 78.8932 21.2754 78.6969 21.5193C78.5034 21.7659 78.2581 21.9555 77.9611 22.0881C77.6642 22.2233 77.3062 22.2909 76.8873 22.2909ZM84.1318 11.8545H86.2556L88.4988 17.3273H88.5943L90.8374 11.8545H92.9613V20H91.2909V14.6983H91.2232L89.1153 19.9602H87.9778L85.8698 14.6784H85.8022V20H84.1318V11.8545ZM97.818 17.3989V13.8909H99.5123V20H97.8856V18.8903H97.822C97.6841 19.2483 97.4547 19.536 97.1339 19.7534C96.8157 19.9708 96.4273 20.0795 95.9686 20.0795C95.5602 20.0795 95.201 19.9867 94.8907 19.8011C94.5805 19.6155 94.3379 19.3517 94.1629 19.0097C93.9905 18.6676 93.903 18.258 93.9004 17.7807V13.8909H95.5947V17.4784C95.5974 17.839 95.6941 18.1241 95.885 18.3335C96.076 18.543 96.3318 18.6477 96.6527 18.6477C96.8568 18.6477 97.0477 18.6013 97.2254 18.5085C97.403 18.4131 97.5462 18.2725 97.6549 18.0869C97.7663 17.9013 97.8206 17.672 97.818 17.3989ZM105.503 15.633L103.951 15.7284C103.925 15.5958 103.868 15.4765 103.78 15.3705C103.693 15.2617 103.578 15.1756 103.434 15.1119C103.294 15.0456 103.125 15.0125 102.929 15.0125C102.667 15.0125 102.445 15.0682 102.265 15.1795C102.085 15.2883 101.995 15.4341 101.995 15.617C101.995 15.7629 102.053 15.8862 102.17 15.9869C102.286 16.0877 102.486 16.1686 102.77 16.2295L103.876 16.4523C104.47 16.5742 104.913 16.7705 105.204 17.0409C105.496 17.3114 105.642 17.6667 105.642 18.1068C105.642 18.5072 105.524 18.8585 105.288 19.1608C105.054 19.4631 104.734 19.6991 104.325 19.8688C103.92 20.0358 103.452 20.1193 102.921 20.1193C102.113 20.1193 101.468 19.9509 100.988 19.6142C100.511 19.2748 100.231 18.8134 100.149 18.2301L101.816 18.1426C101.866 18.3892 101.988 18.5775 102.182 18.7074C102.375 18.8347 102.623 18.8983 102.925 18.8983C103.222 18.8983 103.461 18.8413 103.641 18.7273C103.824 18.6106 103.917 18.4608 103.92 18.2778C103.917 18.1241 103.852 17.9981 103.725 17.9C103.597 17.7992 103.401 17.7223 103.136 17.6693L102.078 17.4585C101.482 17.3392 101.037 17.1324 100.746 16.8381C100.457 16.5437 100.312 16.1686 100.312 15.7125C100.312 15.3201 100.418 14.982 100.63 14.6983C100.845 14.4146 101.146 14.1958 101.533 14.042C101.923 13.8883 102.379 13.8114 102.901 13.8114C103.673 13.8114 104.28 13.9744 104.723 14.3006C105.168 14.6267 105.428 15.0708 105.503 15.633ZM107.955 11.8545V20H106.261V11.8545H107.955ZM108.864 20V13.8909H110.559V20H108.864ZM109.715 13.1034C109.463 13.1034 109.247 13.0199 109.067 12.8528C108.889 12.6831 108.801 12.4803 108.801 12.2443C108.801 12.011 108.889 11.8108 109.067 11.6438C109.247 11.4741 109.463 11.3892 109.715 11.3892C109.967 11.3892 110.182 11.4741 110.36 11.6438C110.54 11.8108 110.63 12.011 110.63 12.2443C110.63 12.4803 110.54 12.6831 110.36 12.8528C110.182 13.0199 109.967 13.1034 109.715 13.1034ZM111.468 20V13.8909H113.083V14.9688H113.154C113.281 14.6108 113.494 14.3284 113.79 14.1216C114.087 13.9148 114.443 13.8114 114.856 13.8114C115.275 13.8114 115.632 13.9161 115.926 14.1256C116.221 14.3324 116.417 14.6134 116.515 14.9688H116.579C116.703 14.6188 116.929 14.339 117.255 14.1295C117.583 13.9174 117.972 13.8114 118.42 13.8114C118.99 13.8114 119.453 13.993 119.808 14.3563C120.166 14.7169 120.345 15.2286 120.345 15.8915V20H118.655V16.2256C118.655 15.8862 118.565 15.6316 118.384 15.4619C118.204 15.2922 117.979 15.2074 117.708 15.2074C117.401 15.2074 117.161 15.3055 116.988 15.5017C116.816 15.6953 116.73 15.9511 116.73 16.2693V20H115.087V16.1898C115.087 15.8902 115.001 15.6515 114.829 15.4739C114.659 15.2962 114.435 15.2074 114.156 15.2074C113.968 15.2074 113.798 15.2551 113.647 15.3506C113.499 15.4434 113.381 15.5746 113.293 15.7443C113.206 15.9114 113.162 16.1076 113.162 16.333V20H111.468ZM123.411 20V11.8545H128.805V13.2744H125.134V15.2153H128.447V16.6352H125.134V20H123.411ZM131.149 20.1153C130.759 20.1153 130.411 20.0477 130.107 19.9125C129.802 19.7746 129.56 19.5718 129.383 19.304C129.208 19.0335 129.12 18.6968 129.12 18.2938C129.12 17.9544 129.183 17.6693 129.307 17.4386C129.432 17.208 129.601 17.0223 129.816 16.8818C130.031 16.7413 130.275 16.6352 130.548 16.5636C130.824 16.492 131.113 16.4417 131.415 16.4125C131.77 16.3754 132.057 16.3409 132.274 16.3091C132.492 16.2746 132.649 16.2242 132.747 16.158C132.846 16.0917 132.895 15.9936 132.895 15.8636V15.8398C132.895 15.5879 132.815 15.393 132.656 15.2551C132.5 15.1172 132.277 15.0483 131.988 15.0483C131.683 15.0483 131.44 15.1159 131.26 15.2511C131.08 15.3837 130.96 15.5508 130.902 15.7523L129.335 15.625C129.415 15.2538 129.571 14.933 129.804 14.6625C130.038 14.3894 130.339 14.1799 130.707 14.0341C131.078 13.8856 131.508 13.8114 131.996 13.8114C132.335 13.8114 132.66 13.8511 132.97 13.9307C133.283 14.0102 133.56 14.1335 133.801 14.3006C134.045 14.4676 134.238 14.6824 134.378 14.9449C134.519 15.2047 134.589 15.5163 134.589 15.8795V20H132.982V19.1528H132.934C132.836 19.3438 132.705 19.5121 132.541 19.658C132.376 19.8011 132.179 19.9138 131.948 19.996C131.717 20.0756 131.451 20.1153 131.149 20.1153ZM131.634 18.946C131.883 18.946 132.103 18.897 132.294 18.7989C132.485 18.6981 132.635 18.5629 132.744 18.3932C132.852 18.2235 132.907 18.0312 132.907 17.8165V17.1682C132.854 17.2027 132.781 17.2345 132.688 17.2636C132.598 17.2902 132.496 17.3153 132.382 17.3392C132.268 17.3604 132.154 17.3803 132.04 17.3989C131.926 17.4148 131.822 17.4294 131.729 17.4426C131.53 17.4718 131.357 17.5182 131.208 17.5818C131.06 17.6455 130.944 17.7316 130.862 17.8403C130.78 17.9464 130.739 18.079 130.739 18.2381C130.739 18.4688 130.822 18.6451 130.99 18.767C131.159 18.8864 131.374 18.946 131.634 18.946ZM135.455 20V13.8909H137.07V14.9688H137.142C137.269 14.6108 137.481 14.3284 137.778 14.1216C138.075 13.9148 138.43 13.8114 138.844 13.8114C139.263 13.8114 139.62 13.9161 139.914 14.1256C140.208 14.3324 140.405 14.6134 140.503 14.9688H140.566C140.691 14.6188 140.916 14.339 141.242 14.1295C141.571 13.9174 141.96 13.8114 142.408 13.8114C142.978 13.8114 143.44 13.993 143.796 14.3563C144.154 14.7169 144.333 15.2286 144.333 15.8915V20H142.642V16.2256C142.642 15.8862 142.552 15.6316 142.372 15.4619C142.192 15.2922 141.966 15.2074 141.696 15.2074C141.388 15.2074 141.148 15.3055 140.976 15.5017C140.804 15.6953 140.717 15.9511 140.717 16.2693V20H139.075V16.1898C139.075 15.8902 138.989 15.6515 138.816 15.4739C138.647 15.2962 138.422 15.2074 138.144 15.2074C137.956 15.2074 137.786 15.2551 137.635 15.3506C137.487 15.4434 137.369 15.5746 137.281 15.7443C137.194 15.9114 137.15 16.1076 137.15 16.333V20H135.455ZM145.223 20V13.8909H146.917V20H145.223ZM146.074 13.1034C145.822 13.1034 145.606 13.0199 145.426 12.8528C145.248 12.6831 145.159 12.4803 145.159 12.2443C145.159 12.011 145.248 11.8108 145.426 11.6438C145.606 11.4741 145.822 11.3892 146.074 11.3892C146.326 11.3892 146.541 11.4741 146.719 11.6438C146.899 11.8108 146.989 12.011 146.989 12.2443C146.989 12.4803 146.899 12.6831 146.719 12.8528C146.541 13.0199 146.326 13.1034 146.074 13.1034ZM149.521 11.8545V20H147.827V11.8545H149.521ZM151.476 22.2909C151.261 22.2909 151.06 22.2737 150.872 22.2392C150.686 22.2074 150.532 22.1663 150.41 22.1159L150.792 20.8511C150.991 20.9121 151.17 20.9453 151.329 20.9506C151.491 20.9559 151.63 20.9188 151.747 20.8392C151.866 20.7597 151.963 20.6244 152.037 20.4335L152.136 20.175L149.945 13.8909H151.727L152.992 18.3773H153.055L154.332 13.8909H156.126L153.751 20.6602C153.637 20.989 153.482 21.2754 153.286 21.5193C153.092 21.7659 152.847 21.9555 152.55 22.0881C152.253 22.2233 151.895 22.2909 151.476 22.2909Z" fill="#4E4A4A"/>
<defs>
<filter id="filter0_i_2074_8612" x="0" y="-3.2" width="32" height="35.2" filterUnits="userSpaceOnUse" color-interpolation-filters="sRGB">
<feFlood flood-opacity="0" result="BackgroundImageFix"/>
<feBlend mode="normal" in="SourceGraphic" in2="BackgroundImageFix" result="shape"/>
<feColorMatrix in="SourceAlpha" type="matrix" values="0 0 0 0 0 0 0 0 0 0 0 0 0 0 0 0 0 0 127 0" result="hardAlpha"/>
<feOffset dy="-3.2"/>
<feGaussianBlur stdDeviation="3.2"/>
<feComposite in2="hardAlpha" operator="arithmetic" k2="-1" k3="1"/>
<feColorMatrix type="matrix" values="0 0 0 0 1 0 0 0 0 1 0 0 0 0 1 0 0 0 0.64 0"/>
<feBlend mode="normal" in2="shape" result="effect1_innerShadow_2074_8612"/>
</filter>
</defs>
</svg>
