<svg width="20" height="20" viewBox="0 0 20 20" fill="none" xmlns="http://www.w3.org/2000/svg">
<path d="M12.5 10C12.5 8.61667 11.3833 7.5 9.99998 7.5C8.61665 7.5 7.49998 8.61667 7.49998 10C7.49998 11.3833 8.61665 12.5 9.99998 12.5C10.3416 12.5 10.675 12.4333 10.975 12.3" stroke="#666D80" stroke-width="1.25" stroke-miterlimit="10" stroke-linecap="round" stroke-linejoin="round"/>
<path d="M5.73332 17.1499L6.64165 17.6749C7.29998 18.0666 8.14999 17.8333 8.54165 17.1749L8.63332 17.0166C9.38332 15.7083 10.6167 15.7083 11.375 17.0166L11.4667 17.1749C11.8583 17.8333 12.7083 18.0666 13.3667 17.6749L14.8083 16.8499C15.5667 16.4166 15.825 15.4416 15.3917 14.6916C14.6333 13.3833 15.25 12.3166 16.7583 12.3166C17.625 12.3166 18.3417 11.6083 18.3417 10.7333V9.2666C18.3417 8.39994 17.6333 7.68327 16.7583 7.68327C15.9167 7.68327 15.35 7.34994 15.15 6.82493C14.9917 6.4166 15.0583 5.88327 15.3917 5.30827C15.825 4.54993 15.5667 3.58327 14.8083 3.14993L14.1333 2.7666" stroke="#666D80" stroke-width="1.25" stroke-miterlimit="10" stroke-linecap="round" stroke-linejoin="round"/>
<path d="M11.3666 2.98336C10.6166 4.2917 9.38331 4.2917 8.62498 2.98336L8.53331 2.82503C8.14998 2.1667 7.29998 1.93336 6.64165 2.32503L5.19998 3.15003C4.44165 3.58336 4.18331 4.55836 4.61665 5.3167C5.37498 6.6167 4.75831 7.68336 3.24998 7.68336C2.38331 7.68336 1.66665 8.3917 1.66665 9.2667V10.7334C1.66665 11.6 2.37498 12.3167 3.24998 12.3167C4.75831 12.3167 5.37498 13.3834 4.61665 14.6917" stroke="#666D80" stroke-width="1.25" stroke-miterlimit="10" stroke-linecap="round" stroke-linejoin="round"/>
</svg>
