<svg width="20" height="20" viewBox="0 0 20 20" fill="none" xmlns="http://www.w3.org/2000/svg">
<path d="M8.69168 2.0165C9.50001 1.54984 10.5 1.54984 11.3167 2.0165L16.2667 4.87483C17.075 5.3415 17.575 6.2082 17.575 7.14987V12.8498C17.575 13.7832 17.075 14.6499 16.2667 15.1249L11.3167 17.9832C10.5083 18.4499 9.50834 18.4499 8.69168 17.9832L3.74168 15.1249C2.93334 14.6582 2.43334 13.7915 2.43334 12.8498V7.14987C2.43334 6.21653 2.93334 5.34983 3.74168 4.87483L5.32501 3.95818" stroke="#666D80" stroke-width="1.25" stroke-linecap="round" stroke-linejoin="round"/>
<path d="M10 9.16651C11.0724 9.16651 11.9417 8.29719 11.9417 7.22483C11.9417 6.15248 11.0724 5.2832 10 5.2832C8.92767 5.2832 8.05836 6.15248 8.05836 7.22483C8.05836 8.29719 8.92767 9.16651 10 9.16651Z" stroke="#666D80" stroke-width="1.25" stroke-linecap="round" stroke-linejoin="round"/>
<path d="M13.3333 13.8831C13.3333 12.3831 11.8417 11.1665 10 11.1665C8.15835 11.1665 6.66668 12.3831 6.66668 13.8831" stroke="#666D80" stroke-width="1.25" stroke-linecap="round" stroke-linejoin="round"/>
</svg>
