<svg width="20" height="20" viewBox="0 0 20 20" fill="none" xmlns="http://www.w3.org/2000/svg">
<path d="M6.78167 6.99176V10.3251M5.115 8.65842H8.44833M13.3592 3.23926H6.64167C5.48812 3.23948 4.38189 3.69788 3.56629 4.51364C2.75069 5.3294 2.2925 6.43571 2.2925 7.58926V14.4768C2.2925 16.2059 4.40333 17.0476 5.59417 15.7943L8.07417 13.1826H11.9275L14.3233 16.0659C15.4683 17.4443 17.7092 16.6343 17.7092 14.8434V7.58842C17.7089 6.43502 17.2507 5.32892 16.4351 4.51334C15.6195 3.69776 14.5126 3.23948 13.3592 3.23926Z" stroke="#757575" stroke-width="1.5" stroke-linecap="round" stroke-linejoin="round"/>
<path d="M12.2183 8.65837C12.6786 8.65837 13.0517 8.28527 13.0517 7.82503C13.0517 7.3648 12.6786 6.9917 12.2183 6.9917C11.7581 6.9917 11.385 7.3648 11.385 7.82503C11.385 8.28527 11.7581 8.65837 12.2183 8.65837Z" fill="#757575"/>
<path d="M14.0517 10.4919C14.5119 10.4919 14.885 10.1188 14.885 9.65853C14.885 9.19829 14.5119 8.8252 14.0517 8.8252C13.5914 8.8252 13.2183 9.19829 13.2183 9.65853C13.2183 10.1188 13.5914 10.4919 14.0517 10.4919Z" fill="#757575"/>
</svg>
