<svg width="16" height="16" viewBox="0 0 16 16" fill="none" xmlns="http://www.w3.org/2000/svg">
<g clip-path="url(#clip0_2009_21732)">
<mask id="path-1-inside-1_2009_21732" fill="white">
<path fill-rule="evenodd" clip-rule="evenodd" d="M7.99998 0.583374C3.90387 0.583374 0.583313 3.90393 0.583313 8.00004C0.583313 12.0962 3.90387 15.4167 7.99998 15.4167C12.0961 15.4167 15.4166 12.0962 15.4166 8.00004C15.4166 3.90393 12.0961 0.583374 7.99998 0.583374ZM2.08331 8.00004C2.08331 4.73236 4.7323 2.08337 7.99998 2.08337C11.2677 2.08337 13.9166 4.73236 13.9166 8.00004C13.9166 11.2677 11.2677 13.9167 7.99998 13.9167C4.7323 13.9167 2.08331 11.2677 2.08331 8.00004ZM6.6464 6.10511C7.02745 5.44815 7.87447 5.22043 8.53812 5.60182C9.19975 5.98206 9.42377 6.8211 9.0439 7.47601C8.85339 7.80447 8.54794 8.02531 8.20402 8.11704C7.8038 8.22378 7.56589 8.63476 7.67263 9.03499C7.77938 9.43521 8.19035 9.67312 8.59058 9.56637C9.30138 9.37679 9.94285 8.91581 10.3414 8.22861C11.1398 6.85222 10.6646 5.09383 9.28552 4.30129C7.90845 3.5099 6.14602 3.97816 5.34886 5.35251C5.14104 5.71082 5.26303 6.16975 5.62133 6.37758C5.97963 6.5854 6.43857 6.46342 6.6464 6.10511ZM7.99998 12.1667C8.46022 12.1667 8.83331 11.7936 8.83331 11.3334C8.83331 10.8731 8.46022 10.5 7.99998 10.5C7.53974 10.5 7.16665 10.8731 7.16665 11.3334C7.16665 11.7936 7.53974 12.1667 7.99998 12.1667Z"/>
</mask>
<path fill-rule="evenodd" clip-rule="evenodd" d="M7.99998 0.583374C3.90387 0.583374 0.583313 3.90393 0.583313 8.00004C0.583313 12.0962 3.90387 15.4167 7.99998 15.4167C12.0961 15.4167 15.4166 12.0962 15.4166 8.00004C15.4166 3.90393 12.0961 0.583374 7.99998 0.583374ZM2.08331 8.00004C2.08331 4.73236 4.7323 2.08337 7.99998 2.08337C11.2677 2.08337 13.9166 4.73236 13.9166 8.00004C13.9166 11.2677 11.2677 13.9167 7.99998 13.9167C4.7323 13.9167 2.08331 11.2677 2.08331 8.00004ZM6.6464 6.10511C7.02745 5.44815 7.87447 5.22043 8.53812 5.60182C9.19975 5.98206 9.42377 6.8211 9.0439 7.47601C8.85339 7.80447 8.54794 8.02531 8.20402 8.11704C7.8038 8.22378 7.56589 8.63476 7.67263 9.03499C7.77938 9.43521 8.19035 9.67312 8.59058 9.56637C9.30138 9.37679 9.94285 8.91581 10.3414 8.22861C11.1398 6.85222 10.6646 5.09383 9.28552 4.30129C7.90845 3.5099 6.14602 3.97816 5.34886 5.35251C5.14104 5.71082 5.26303 6.16975 5.62133 6.37758C5.97963 6.5854 6.43857 6.46342 6.6464 6.10511ZM7.99998 12.1667C8.46022 12.1667 8.83331 11.7936 8.83331 11.3334C8.83331 10.8731 8.46022 10.5 7.99998 10.5C7.53974 10.5 7.16665 10.8731 7.16665 11.3334C7.16665 11.7936 7.53974 12.1667 7.99998 12.1667Z" fill="#808897"/>
<path d="M8.53812 5.60182L7.94019 6.64225L7.94019 6.64225L8.53812 5.60182ZM6.6464 6.10511L5.60837 5.50303L6.6464 6.10511ZM9.0439 7.47601L8.00588 6.87393L8.00588 6.87393L9.0439 7.47601ZM8.20402 8.11704L7.89477 6.95757H7.89477L8.20402 8.11704ZM7.67263 9.03499L8.8321 8.72574V8.72574L7.67263 9.03499ZM8.59058 9.56637L8.28133 8.40691L8.28133 8.40691L8.59058 9.56637ZM10.3414 8.22861L11.3795 8.83069L11.3795 8.83069L10.3414 8.22861ZM9.28552 4.30129L9.88344 3.26086L9.28552 4.30129ZM5.34886 5.35251L4.31084 4.75043L5.34886 5.35251ZM5.62133 6.37758L6.22341 5.33955L6.22341 5.33955L5.62133 6.37758ZM1.78331 8.00004C1.78331 4.56667 4.56661 1.78337 7.99998 1.78337V-0.616626C3.24113 -0.616626 -0.616687 3.24119 -0.616687 8.00004H1.78331ZM7.99998 14.2167C4.56661 14.2167 1.78331 11.4334 1.78331 8.00004H-0.616687C-0.616687 12.7589 3.24113 16.6167 7.99998 16.6167V14.2167ZM14.2166 8.00004C14.2166 11.4334 11.4333 14.2167 7.99998 14.2167V16.6167C12.7588 16.6167 16.6166 12.7589 16.6166 8.00004H14.2166ZM7.99998 1.78337C11.4333 1.78337 14.2166 4.56667 14.2166 8.00004H16.6166C16.6166 3.24119 12.7588 -0.616626 7.99998 -0.616626V1.78337ZM7.99998 0.883374C4.06955 0.883374 0.883313 4.06961 0.883313 8.00004H3.28331C3.28331 5.3951 5.39504 3.28337 7.99998 3.28337V0.883374ZM15.1166 8.00004C15.1166 4.06961 11.9304 0.883374 7.99998 0.883374V3.28337C10.6049 3.28337 12.7166 5.3951 12.7166 8.00004H15.1166ZM7.99998 15.1167C11.9304 15.1167 15.1166 11.9305 15.1166 8.00004H12.7166C12.7166 10.605 10.6049 12.7167 7.99998 12.7167V15.1167ZM0.883313 8.00004C0.883313 11.9305 4.06955 15.1167 7.99998 15.1167V12.7167C5.39504 12.7167 3.28331 10.605 3.28331 8.00004H0.883313ZM9.13604 4.5614C7.90129 3.8518 6.32209 4.27253 5.60837 5.50303L7.68442 6.70719C7.73281 6.62378 7.84764 6.58907 7.94019 6.64225L9.13604 4.5614ZM10.0819 8.07809C10.7964 6.84637 10.372 5.2717 9.13604 4.5614L7.94019 6.64225C8.02749 6.69242 8.05119 6.79582 8.00588 6.87393L10.0819 8.07809ZM8.51327 9.27651C9.15115 9.10638 9.72519 8.69315 10.0819 8.07809L8.00588 6.87393C7.9816 6.91579 7.94473 6.94425 7.89477 6.95757L8.51327 9.27651ZM8.8321 8.72574C8.89615 8.96587 8.7534 9.21246 8.51327 9.27651L7.89477 6.95757C6.85419 7.23511 6.23562 8.30365 6.51316 9.34423L8.8321 8.72574ZM8.28133 8.40691C8.52147 8.34286 8.76805 8.48561 8.8321 8.72574L6.51316 9.34423C6.7907 10.3848 7.85924 11.0034 8.89983 10.7258L8.28133 8.40691ZM9.30341 7.62653C9.07139 8.02655 8.69885 8.29555 8.28133 8.40691L8.89982 10.7258C9.90391 10.458 10.8143 9.80507 11.3795 8.83069L9.30341 7.62653ZM8.6876 5.34172C9.4929 5.80452 9.76687 6.8275 9.30341 7.62653L11.3795 8.83069C12.5127 6.87694 11.8363 4.38315 9.88344 3.26086L8.6876 5.34172ZM6.38689 5.95459C6.85106 5.15433 7.88109 4.87823 8.6876 5.34172L9.88344 3.26086C7.93582 2.14158 5.44097 2.802 4.31084 4.75043L6.38689 5.95459ZM6.22341 5.33955C6.43839 5.46425 6.51158 5.73961 6.38689 5.95459L4.31084 4.75043C3.77049 5.68202 4.08766 6.87526 5.01925 7.41561L6.22341 5.33955ZM5.60837 5.50303C5.73306 5.28805 6.00843 5.21486 6.22341 5.33955L5.01925 7.41561C5.95084 7.95595 7.14408 7.63878 7.68442 6.70719L5.60837 5.50303ZM7.63331 11.3334C7.63331 11.1309 7.79747 10.9667 7.99998 10.9667V13.3667C9.12296 13.3667 10.0333 12.4564 10.0333 11.3334H7.63331ZM7.99998 11.7C7.79747 11.7 7.63331 11.5359 7.63331 11.3334H10.0333C10.0333 10.2104 9.12296 9.30004 7.99998 9.30004V11.7ZM8.36665 11.3334C8.36665 11.5359 8.20248 11.7 7.99998 11.7V9.30004C6.877 9.30004 5.96665 10.2104 5.96665 11.3334H8.36665ZM7.99998 10.9667C8.20248 10.9667 8.36665 11.1309 8.36665 11.3334H5.96665C5.96665 12.4564 6.877 13.3667 7.99998 13.3667V10.9667Z" fill="#808897" mask="url(#path-1-inside-1_2009_21732)"/>
</g>
<defs>
<clipPath id="clip0_2009_21732">
<rect width="16" height="16" fill="white"/>
</clipPath>
</defs>
</svg>
