<svg width="13" height="12" viewBox="0 0 13 12" fill="none" xmlns="http://www.w3.org/2000/svg">
<path d="M9.33331 8.5H3.33331V7.5H9.33331V8.5ZM9.33331 6.5H3.33331V5.5H9.33331V6.5ZM9.33331 4.5H3.33331V3.5H9.33331V4.5ZM1.83331 11L2.58331 10.25L3.33331 11L4.08331 10.25L4.83331 11L5.58331 10.25L6.33331 11L7.08331 10.25L7.83331 11L8.58331 10.25L9.33331 11L10.0833 10.25L10.8333 11V1L10.0833 1.75L9.33331 1L8.58331 1.75L7.83331 1L7.08331 1.75L6.33331 1L5.58331 1.75L4.83331 1L4.08331 1.75L3.33331 1L2.58331 1.75L1.83331 1V11Z" fill="#4E57EF"/>
</svg>
