<svg width="20" height="20" viewBox="0 0 20 20" fill="none" xmlns="http://www.w3.org/2000/svg">
<path d="M5.00002 15C5.05307 15 5.10774 15 5.16411 15H10M5.00002 15C4.17646 14.9993 3.74447 14.989 3.40985 14.8185C3.09625 14.6587 2.84147 14.4031 2.68168 14.0895C2.50002 13.733 2.50002 13.2669 2.50002 12.3335V7.66683C2.50002 6.73341 2.50002 6.26635 2.68168 5.90983C2.84147 5.59623 3.09625 5.34144 3.40985 5.18166C3.76637 5 4.23343 5 5.16685 5H14.8335C15.7669 5 16.233 5 16.5895 5.18166C16.9031 5.34144 17.1588 5.59623 17.3185 5.90983C17.5 6.266 17.5 6.73249 17.5 7.66409V12.3359C17.5 13.2675 17.5 13.7333 17.3185 14.0895C17.1588 14.4031 16.9031 14.6587 16.5895 14.8185C16.2333 15 15.7675 15 14.8359 15H10M5.00002 15C5.00005 14.0795 6.11933 13.3333 7.50002 13.3333C8.88073 13.3333 10 14.0795 10 15M5.00002 15C5.00002 15 5.00002 14.9999 5.00002 15ZM15 11.6667H11.6667M15 9.16667H12.5M7.50002 10.8333C6.57955 10.8333 5.83335 10.0871 5.83335 9.16667C5.83335 8.24619 6.57955 7.5 7.50002 7.5C8.4205 7.5 9.16669 8.24619 9.16669 9.16667C9.16669 10.0871 8.4205 10.8333 7.50002 10.8333Z" stroke="#666D80" stroke-width="1.25" stroke-linecap="round" stroke-linejoin="round"/>
</svg>
