<svg width="13" height="12" viewBox="0 0 13 12" fill="none" xmlns="http://www.w3.org/2000/svg">
<path d="M2.66663 3H1.66663V10C1.66663 10.55 2.11663 11 2.66663 11H9.66663V10H2.66663V3ZM10.6666 1H4.66663C4.11663 1 3.66663 1.45 3.66663 2V8C3.66663 8.55 4.11663 9 4.66663 9H10.6666C11.2166 9 11.6666 8.55 11.6666 8V2C11.6666 1.45 11.2166 1 10.6666 1ZM7.66663 2C8.49663 2 9.16663 2.67 9.16663 3.5C9.16663 4.33 8.49663 5 7.66663 5C6.83663 5 6.16663 4.33 6.16663 3.5C6.16663 2.67 6.83663 2 7.66663 2ZM10.6666 8H4.66663V7.25C4.66663 6.255 6.66663 5.75 7.66663 5.75C8.66663 5.75 10.6666 6.255 10.6666 7.25V8Z" fill="#4E57EF"/>
</svg>
