<svg width="20" height="20" viewBox="0 0 20 20" fill="none" xmlns="http://www.w3.org/2000/svg">
<path d="M17.5 16.6664C17.5 15.2151 16.1087 13.9804 14.1667 13.5228M12.5 16.6665C12.5 14.8256 10.2614 13.3332 7.5 13.3332C4.73858 13.3332 2.5 14.8256 2.5 16.6665M12.5 10.8332C14.3409 10.8332 15.8333 9.34079 15.8333 7.49984C15.8333 5.65889 14.3409 4.1665 12.5 4.1665M7.5 10.8332C5.65905 10.8332 4.16667 9.34079 4.16667 7.49984C4.16667 5.65889 5.65905 4.1665 7.5 4.1665C9.34095 4.1665 10.8333 5.65889 10.8333 7.49984C10.8333 9.34079 9.34095 10.8332 7.5 10.8332Z" stroke="#666D80" stroke-width="1.25" stroke-linecap="round" stroke-linejoin="round"/>
</svg>
