<svg width="64" height="64" viewBox="0 0 64 64" fill="none" xmlns="http://www.w3.org/2000/svg">
<g filter="url(#filter0_d_2009_22838)">
<rect x="4" y="2" width="56" height="56" rx="28" fill="white"/>
<rect x="4.5" y="2.5" width="55" height="55" rx="27.5" stroke="#DFE1E6"/>
<path d="M34.3333 32.3333H29.6667C26.445 32.3333 23.8333 34.945 23.8333 38.1667V39.3333C23.8333 39.9777 24.3557 40.5 25 40.5H39C39.6443 40.5 40.1667 39.9777 40.1667 39.3333V38.1667C40.1667 34.945 37.555 32.3333 34.3333 32.3333Z" stroke="#808897" stroke-width="2"/>
<path d="M32 28.8333C34.5773 28.8333 36.6667 26.744 36.6667 24.1667C36.6667 21.5893 34.5773 19.5 32 19.5C29.4227 19.5 27.3333 21.5893 27.3333 24.1667C27.3333 26.744 29.4227 28.8333 32 28.8333Z" stroke="#808897" stroke-width="2"/>
</g>
<defs>
<filter id="filter0_d_2009_22838" x="0" y="0" width="64" height="64" filterUnits="userSpaceOnUse" color-interpolation-filters="sRGB">
<feFlood flood-opacity="0" result="BackgroundImageFix"/>
<feColorMatrix in="SourceAlpha" type="matrix" values="0 0 0 0 0 0 0 0 0 0 0 0 0 0 0 0 0 0 127 0" result="hardAlpha"/>
<feOffset dy="2"/>
<feGaussianBlur stdDeviation="2"/>
<feColorMatrix type="matrix" values="0 0 0 0 0.105882 0 0 0 0 0.109804 0 0 0 0 0.113725 0 0 0 0.04 0"/>
<feBlend mode="normal" in2="BackgroundImageFix" result="effect1_dropShadow_2009_22838"/>
<feBlend mode="normal" in="SourceGraphic" in2="effect1_dropShadow_2009_22838" result="shape"/>
</filter>
</defs>
</svg>
